<?xml version="1.0" encoding="utf-8" standalone="no"?>
<!DOCTYPE svg PUBLIC "-//W3C//DTD SVG 1.1//EN"
  "http://www.w3.org/Graphics/SVG/1.1/DTD/svg11.dtd">
<!-- Created with matplotlib (https://matplotlib.org/) -->
<svg height="506.368437pt" version="1.1" viewBox="0 0 892.673125 506.368437" width="892.673125pt" xmlns="http://www.w3.org/2000/svg" xmlns:xlink="http://www.w3.org/1999/xlink">
 <defs>
  <style type="text/css">
*{stroke-linecap:butt;stroke-linejoin:round;}
  </style>
 </defs>
 <g id="figure_1">
  <g id="patch_1">
   <path d="M 0 506.368437 
L 892.673125 506.368437 
L 892.673125 0 
L 0 0 
z
" style="fill:#ffffff;"/>
  </g>
  <g id="axes_1">
   <g id="patch_2">
    <path d="M 44.973125 401.7 
L 881.973125 401.7 
L 881.973125 21.18 
L 44.973125 21.18 
z
" style="fill:#ffffff;"/>
   </g>
   <g id="matplotlib.axis_1">
    <g id="xtick_1">
     <g id="line2d_1">
      <path clip-path="url(#p7ec447a9ad)" d="M 83.01858 401.7 
L 83.01858 21.18 
" style="fill:none;stroke:#cccccc;stroke-linecap:round;stroke-width:0.8;"/>
     </g>
     <g id="text_1">
      <!-- 10 -->
      <defs>
       <path d="M 29.90625 62.296875 
L 25.09375 62.296875 
L 8.796875 53.796875 
L 10.40625 49.90625 
L 22.90625 53.59375 
L 22.90625 -0.09375 
L 29.90625 -0.09375 
z
" id="Inconsolata-49"/>
       <path d="M 25.09375 62.703125 
C 15.203125 62.703125 5 50.5 5 30.59375 
C 5 10.40625 15.296875 -1.203125 25.203125 -1.203125 
C 34.203125 -1.203125 44.90625 8.59375 44.90625 30.09375 
C 44.90625 51.296875 34.703125 62.703125 25.09375 62.703125 
z
M 34.796875 48.40625 
L 12.90625 20 
C 12 23.5 11.5 27.40625 11.5 31.796875 
C 11.5 47.796875 18.796875 56.59375 25 56.59375 
C 28.40625 56.59375 32.09375 53.90625 34.796875 48.40625 
z
M 37.09375 41.796875 
C 38 38.296875 38.40625 34.09375 38.40625 29.203125 
C 38.40625 11.796875 30.90625 5.203125 25.40625 5.203125 
C 21.703125 5.203125 17.90625 8.203125 15.203125 13.703125 
z
" id="Inconsolata-48"/>
      </defs>
      <g style="fill:#262626;" transform="translate(78.01858 415.340625)scale(0.1 -0.1)">
       <use xlink:href="#Inconsolata-49"/>
       <use x="49.999985" xlink:href="#Inconsolata-48"/>
      </g>
     </g>
    </g>
    <g id="xtick_2">
     <g id="line2d_2">
      <path clip-path="url(#p7ec447a9ad)" d="M 106.311715 401.7 
L 106.311715 21.18 
" style="fill:none;stroke:#cccccc;stroke-linecap:round;stroke-width:0.8;"/>
     </g>
     <g id="text_2">
      <!-- 25 -->
      <defs>
       <path d="M 7.703125 52.59375 
L 12.796875 48.5 
C 13.40625 49.40625 13.09375 50 13.703125 50.796875 
C 15.203125 53.09375 18.90625 56.5 24.296875 56.5 
C 31 56.5 36.296875 51.40625 36.296875 44.703125 
C 36.296875 37.09375 29.90625 31.59375 25.40625 27.5 
C 18.296875 21.09375 12.5 14.703125 7.296875 4.40625 
L 7.296875 0 
L 43.90625 0 
L 43.90625 6.90625 
C 43.203125 7.203125 42.703125 6.703125 42.5 6.5 
C 42.09375 6.09375 41.90625 6.09375 41.5 6.09375 
L 15.296875 6.09375 
C 20.5 15.09375 27.796875 21.296875 32.296875 25.5 
C 36.796875 29.796875 43.203125 36.203125 43.203125 45.203125 
C 43.203125 54.90625 35.296875 62.703125 25.203125 62.703125 
C 18.09375 62.703125 11.40625 58.90625 7.703125 52.59375 
z
" id="Inconsolata-50"/>
       <path d="M 10.59375 62.296875 
L 8.40625 30.59375 
L 12.90625 28.796875 
C 15.90625 32.59375 20.296875 34.703125 24.59375 34.703125 
C 31.09375 34.703125 37.296875 29.703125 37.296875 19.796875 
C 37.296875 10.203125 31.40625 5 24.703125 5 
C 18 5 13.59375 10.09375 13.296875 10.703125 
C 12.90625 11.5 13.40625 12.5 12.5 13.09375 
L 6.296875 8.40625 
C 10.5 2.296875 17.40625 -1.203125 24.796875 -1.203125 
C 35.59375 -1.203125 44.5 6.09375 44.5 19.59375 
C 44.5 33 36.09375 40.40625 25.59375 40.40625 
C 22.203125 40.40625 18.703125 39.59375 15.5 38 
L 16.40625 56 
L 42.203125 56 
L 42.203125 62.296875 
z
" id="Inconsolata-53"/>
      </defs>
      <g style="fill:#262626;" transform="translate(101.311715 415.340625)scale(0.1 -0.1)">
       <use xlink:href="#Inconsolata-50"/>
       <use x="49.999985" xlink:href="#Inconsolata-53"/>
      </g>
     </g>
    </g>
    <g id="xtick_3">
     <g id="line2d_3">
      <path clip-path="url(#p7ec447a9ad)" d="M 145.133607 401.7 
L 145.133607 21.18 
" style="fill:none;stroke:#cccccc;stroke-linecap:round;stroke-width:0.8;"/>
     </g>
     <g id="text_3">
      <!-- 50 -->
      <g style="fill:#262626;" transform="translate(140.133607 415.340625)scale(0.1 -0.1)">
       <use xlink:href="#Inconsolata-53"/>
       <use x="49.999985" xlink:href="#Inconsolata-48"/>
      </g>
     </g>
    </g>
    <g id="xtick_4">
     <g id="line2d_4">
      <path clip-path="url(#p7ec447a9ad)" d="M 261.599285 401.7 
L 261.599285 21.18 
" style="fill:none;stroke:#cccccc;stroke-linecap:round;stroke-width:0.8;"/>
     </g>
     <g id="text_4">
      <!-- 125 -->
      <g style="fill:#262626;" transform="translate(254.099285 415.340625)scale(0.1 -0.1)">
       <use xlink:href="#Inconsolata-49"/>
       <use x="49.999985" xlink:href="#Inconsolata-50"/>
       <use x="99.999969" xlink:href="#Inconsolata-53"/>
      </g>
     </g>
    </g>
    <g id="xtick_5">
     <g id="line2d_5">
      <path clip-path="url(#p7ec447a9ad)" d="M 455.708747 401.7 
L 455.708747 21.18 
" style="fill:none;stroke:#cccccc;stroke-linecap:round;stroke-width:0.8;"/>
     </g>
     <g id="text_5">
      <!-- 250 -->
      <g style="fill:#262626;" transform="translate(448.208747 415.340625)scale(0.1 -0.1)">
       <use xlink:href="#Inconsolata-50"/>
       <use x="49.999985" xlink:href="#Inconsolata-53"/>
       <use x="99.999969" xlink:href="#Inconsolata-48"/>
      </g>
     </g>
    </g>
    <g id="xtick_6">
     <g id="line2d_6">
      <path clip-path="url(#p7ec447a9ad)" d="M 843.92767 401.7 
L 843.92767 21.18 
" style="fill:none;stroke:#cccccc;stroke-linecap:round;stroke-width:0.8;"/>
     </g>
     <g id="text_6">
      <!-- 500 -->
      <g style="fill:#262626;" transform="translate(836.42767 415.340625)scale(0.1 -0.1)">
       <use xlink:href="#Inconsolata-53"/>
       <use x="49.999985" xlink:href="#Inconsolata-48"/>
       <use x="99.999969" xlink:href="#Inconsolata-48"/>
      </g>
     </g>
    </g>
    <g id="text_7">
     <!-- RTT (ms) -->
     <defs>
      <path d="M 5.59375 62.296875 
L 5.59375 0 
L 12.59375 0 
L 12.59375 27.5 
L 24.703125 27.5 
L 38.5 0 
L 46.40625 0 
L 32 27.703125 
C 39.5 29.796875 44.703125 36.90625 44.703125 45.203125 
C 44.703125 51.40625 41.59375 57.296875 35.796875 60.203125 
C 31.90625 62.203125 28 62.296875 23.90625 62.296875 
z
M 12.59375 55.703125 
L 23.90625 55.703125 
C 26.5 55.703125 29 55.59375 31.59375 54.40625 
C 35.5 52.40625 37.5 48.40625 37.5 44.40625 
C 37.5 40.40625 35.59375 36.703125 32 34.90625 
C 29.59375 33.703125 27.203125 33.59375 24.703125 33.59375 
L 12.59375 33.59375 
z
" id="Inconsolata-82"/>
      <path d="M 3.09375 62.296875 
L 3.09375 56 
L 20.703125 56 
L 20.703125 -0.09375 
L 27.796875 -0.09375 
L 27.796875 56 
L 46.203125 56 
L 46.203125 62.296875 
z
" id="Inconsolata-84"/>
      <path id="Inconsolata-32"/>
      <path d="M 39.09375 66.59375 
C 23.703125 59.796875 13.796875 44.09375 13.796875 25.796875 
C 13.796875 7.59375 23.40625 -9 39.203125 -17.296875 
L 42.5 -12 
C 28.796875 -4.09375 20.796875 10.59375 20.796875 26.09375 
C 20.796875 40.40625 27.703125 53.203125 39.40625 60 
C 39.59375 60.203125 39.90625 60.40625 40.296875 60.40625 
C 40.59375 60.40625 40.90625 60.203125 41.296875 60.203125 
C 41.5 60.203125 41.796875 60.296875 42.203125 60.40625 
z
" id="Inconsolata-40"/>
      <path d="M 3.703125 0 
L 10.296875 0 
L 10.296875 30.40625 
C 10.296875 32.59375 10.5 34.59375 11.796875 37 
C 13.40625 40 15.40625 41.203125 17.296875 41.203125 
C 18.90625 41.203125 20.703125 40.203125 21.5 37.703125 
C 22.09375 35.796875 22 33.59375 22 31.703125 
L 22 0 
L 28.703125 0 
L 28.703125 30.203125 
C 28.703125 32.59375 28.90625 34.5 30.59375 37.40625 
C 31.40625 38.59375 33.09375 41.5 35.90625 41.5 
C 37.40625 41.5 38.796875 40.59375 39.5 38.90625 
C 40.40625 37 40.203125 34.40625 40.203125 32.296875 
L 40.203125 -0.09375 
L 47 -0.09375 
L 47 32.40625 
C 47 36.203125 47.09375 40 45.09375 43.09375 
C 43.40625 45.703125 40.5 46.703125 38 46.703125 
C 33.59375 46.703125 29.5 44.09375 27.703125 40.09375 
C 27 43.90625 23.796875 46.703125 19.703125 46.703125 
C 15.90625 46.703125 12.40625 44.296875 10.296875 41.09375 
L 10.40625 45.59375 
L 3.703125 45.59375 
z
" id="Inconsolata-109"/>
      <path d="M 43.203125 39.59375 
C 39 44.203125 32.90625 46.703125 26.09375 46.703125 
C 15.5 46.703125 8.59375 40.796875 8.59375 34 
C 8.59375 26 17.203125 23.09375 19.703125 22.203125 
C 23.59375 20.796875 28.59375 19.59375 32 18 
C 35.796875 16.203125 36.5 13.796875 36.5 12.203125 
C 36.5 7.90625 31.296875 5 24.796875 5 
C 17 5 12 9.703125 10.5 11.296875 
C 10.203125 11.703125 10.203125 12 10.203125 12.40625 
C 10.203125 12.5 10.296875 13.09375 9.796875 13.296875 
L 5.59375 6.203125 
C 11 1.203125 18 -1.09375 24.90625 -1.09375 
C 37.40625 -1.09375 43.90625 6.296875 43.90625 13.203125 
C 43.90625 16.296875 42.59375 20.5 37.203125 23.5 
C 32.09375 26.40625 24.703125 27.40625 20.40625 29.5 
C 16.703125 31.296875 15.90625 33.5 15.90625 35.09375 
C 15.90625 38.703125 20.40625 41.296875 25.5 41.296875 
C 32.09375 41.296875 36.5 37.296875 38.203125 35 
C 38.5 34.703125 38.40625 34.40625 38.40625 34.09375 
C 38.40625 33.5 38.796875 33.296875 39 33.296875 
z
" id="Inconsolata-115"/>
      <path d="M 7.703125 60.296875 
C 20.90625 53.203125 29.296875 39.59375 29.296875 24.703125 
C 29.296875 9.703125 20.703125 -4.296875 7.203125 -11.40625 
L 9.09375 -17.5 
C 25.703125 -9.59375 36.40625 7 36.40625 25 
C 36.40625 42.796875 25.90625 59 9.59375 66.5 
z
" id="Inconsolata-41"/>
     </defs>
     <g style="fill:#262626;" transform="translate(435.473125 430.334062)scale(0.14 -0.14)">
      <use xlink:href="#Inconsolata-82"/>
      <use x="49.999985" xlink:href="#Inconsolata-84"/>
      <use x="99.999969" xlink:href="#Inconsolata-84"/>
      <use x="149.999954" xlink:href="#Inconsolata-32"/>
      <use x="199.999939" xlink:href="#Inconsolata-40"/>
      <use x="249.999924" xlink:href="#Inconsolata-109"/>
      <use x="299.999908" xlink:href="#Inconsolata-115"/>
      <use x="349.999893" xlink:href="#Inconsolata-41"/>
     </g>
    </g>
   </g>
   <g id="matplotlib.axis_2">
    <g id="ytick_1">
     <g id="line2d_7">
      <path clip-path="url(#p7ec447a9ad)" d="M 44.973125 320.493787 
L 881.973125 320.493787 
" style="fill:none;stroke:#cccccc;stroke-linecap:round;stroke-width:0.8;"/>
     </g>
     <g id="text_8">
      <!-- 50 -->
      <g style="fill:#262626;" transform="translate(27.973125 323.814099)scale(0.1 -0.1)">
       <use xlink:href="#Inconsolata-53"/>
       <use x="49.999985" xlink:href="#Inconsolata-48"/>
      </g>
     </g>
    </g>
    <g id="ytick_2">
     <g id="line2d_8">
      <path clip-path="url(#p7ec447a9ad)" d="M 44.973125 236.567523 
L 881.973125 236.567523 
" style="fill:none;stroke:#cccccc;stroke-linecap:round;stroke-width:0.8;"/>
     </g>
     <g id="text_9">
      <!-- 100 -->
      <g style="fill:#262626;" transform="translate(22.973125 239.887836)scale(0.1 -0.1)">
       <use xlink:href="#Inconsolata-49"/>
       <use x="49.999985" xlink:href="#Inconsolata-48"/>
       <use x="99.999969" xlink:href="#Inconsolata-48"/>
      </g>
     </g>
    </g>
    <g id="ytick_3">
     <g id="line2d_9">
      <path clip-path="url(#p7ec447a9ad)" d="M 44.973125 152.64126 
L 881.973125 152.64126 
" style="fill:none;stroke:#cccccc;stroke-linecap:round;stroke-width:0.8;"/>
     </g>
     <g id="text_10">
      <!-- 150 -->
      <g style="fill:#262626;" transform="translate(22.973125 155.961572)scale(0.1 -0.1)">
       <use xlink:href="#Inconsolata-49"/>
       <use x="49.999985" xlink:href="#Inconsolata-53"/>
       <use x="99.999969" xlink:href="#Inconsolata-48"/>
      </g>
     </g>
    </g>
    <g id="ytick_4">
     <g id="line2d_10">
      <path clip-path="url(#p7ec447a9ad)" d="M 44.973125 68.714996 
L 881.973125 68.714996 
" style="fill:none;stroke:#cccccc;stroke-linecap:round;stroke-width:0.8;"/>
     </g>
     <g id="text_11">
      <!-- 200 -->
      <g style="fill:#262626;" transform="translate(22.973125 72.035309)scale(0.1 -0.1)">
       <use xlink:href="#Inconsolata-50"/>
       <use x="49.999985" xlink:href="#Inconsolata-48"/>
       <use x="99.999969" xlink:href="#Inconsolata-48"/>
      </g>
     </g>
    </g>
    <g id="text_12">
     <!-- Tiempo de descarga (s) -->
     <defs>
      <path d="M 10.59375 45.703125 
L 10.59375 39.796875 
L 21.59375 39.796875 
L 21.59375 5.703125 
L 10 5.703125 
L 10 0 
L 39.59375 0 
L 39.59375 5.703125 
L 28.90625 5.703125 
L 28.90625 45.703125 
z
M 25.40625 65.5 
C 22.5 65.5 20.203125 63.203125 20.203125 60.40625 
C 20.203125 57.59375 22.5 55.296875 25.40625 55.296875 
C 28.296875 55.296875 30.59375 57.59375 30.59375 60.40625 
C 30.59375 63.203125 28.296875 65.5 25.40625 65.5 
z
" id="Inconsolata-105"/>
      <path d="M 25.796875 46.703125 
C 14.90625 46.703125 4.796875 38.90625 4.796875 22.296875 
C 4.796875 7 14.296875 -1.09375 26.703125 -1.09375 
C 33.296875 -1.09375 39.203125 1.296875 43.09375 6 
L 39.09375 9.90625 
C 36.203125 6.5 31.796875 4.703125 27.296875 4.703125 
C 21.203125 4.703125 12.296875 8.09375 11.796875 21.796875 
L 44.203125 21.796875 
C 44.5 24.90625 44.40625 27.90625 43.90625 30.5 
C 41.796875 42.796875 33.296875 46.703125 25.796875 46.703125 
z
M 12 27.296875 
C 13.5 38.09375 20.40625 41.203125 25.296875 41.203125 
C 32.703125 41.203125 38 34.703125 37.09375 27.296875 
z
" id="Inconsolata-101"/>
      <path d="M 5.90625 45.59375 
L 6 -16.703125 
L 13.296875 -16.703125 
L 13.296875 6 
C 16.40625 1.5 21.5 -1.296875 27 -1.296875 
C 36.40625 -1.296875 46.203125 6.59375 46.203125 23.296875 
C 46.203125 39.40625 36.703125 46.59375 27.703125 46.59375 
C 21.796875 46.59375 16.296875 43.59375 13.203125 38.59375 
L 13.203125 45.59375 
z
M 25 40.5 
C 29 40.5 38.703125 38.40625 38.703125 21.796875 
C 38.703125 7.40625 29.296875 5.09375 25 5.09375 
C 20.703125 5.09375 16.296875 7.296875 14.5 11.40625 
C 13.203125 14.5 13.203125 18.296875 13.203125 24.90625 
C 13.203125 28.703125 13.40625 31.5 14.40625 33.90625 
C 16.203125 38 20.40625 40.5 25 40.5 
z
" id="Inconsolata-112"/>
      <path d="M 46 22.59375 
C 46 38.40625 36 46.59375 25.59375 46.59375 
C 14 46.59375 4 36.59375 4 22.40625 
C 4 8.5 13.90625 -1.296875 25.40625 -1.296875 
C 36.203125 -1.296875 46 7.40625 46 22.59375 
z
M 25.09375 40.5 
C 31.703125 40.5 38.703125 34.796875 38.703125 22.296875 
C 38.703125 10.796875 32.09375 5 25.5 5 
C 18.203125 5 11.59375 11.796875 11.59375 23.09375 
C 11.59375 34.296875 18.09375 40.5 25.09375 40.5 
z
" id="Inconsolata-111"/>
      <path d="M 37.09375 39 
C 34.90625 43.703125 30 46.796875 23.703125 46.796875 
C 15 46.796875 4.40625 40.59375 4.40625 23.203125 
C 4.40625 6.296875 13.796875 -1.09375 22.59375 -1.09375 
C 28.40625 -1.09375 33.796875 2.203125 36.703125 7.296875 
L 36.703125 3.296875 
C 36.703125 2.203125 36.796875 1.09375 37.09375 0 
L 44.296875 0 
C 43.90625 1.296875 43.90625 2.796875 43.90625 4.203125 
L 43.796875 63.59375 
C 43.796875 64.203125 43.796875 64.40625 44.203125 65 
C 44.40625 65.296875 44.796875 65.796875 44.703125 66.5 
L 37.09375 66.5 
z
M 24 40.90625 
C 28 40.90625 33.90625 38.796875 35.703125 32 
C 36.296875 29.90625 36.5 27.40625 36.5 22.296875 
C 36.5 18.796875 36.296875 16.296875 35.5 13.90625 
C 33.796875 8.5 29 5.296875 24.296875 5.296875 
C 19.09375 5.296875 11.40625 9.296875 11.40625 24.296875 
C 11.40625 37.40625 18.703125 40.90625 24 40.90625 
z
" id="Inconsolata-100"/>
      <path d="M 45.59375 38.09375 
C 42 43.40625 35.90625 46.59375 28.5 46.59375 
C 15.09375 46.59375 5.59375 36.5 5.59375 22.796875 
C 5.59375 9 15.09375 -1.203125 28.09375 -1.203125 
C 34.40625 -1.203125 40.59375 1.40625 44.90625 6.09375 
L 40.796875 10.90625 
C 37.703125 7.40625 33.203125 5.40625 28.703125 5.40625 
C 19.796875 5.40625 13 12.796875 13 23.5 
C 13 33.90625 19.703125 40.40625 28.09375 40.40625 
C 35.90625 40.40625 39.59375 35 39.90625 34.40625 
C 40.296875 33.703125 39.703125 32.703125 40.5 32.09375 
z
" id="Inconsolata-99"/>
      <path d="M 9 40.296875 
L 12.5 35.703125 
C 16.296875 39.59375 21.40625 40.796875 25.703125 40.796875 
C 31.09375 40.796875 33.796875 38.5 35.09375 36.40625 
C 36.59375 33.90625 36.5 30.90625 36.5 28.5 
L 36.5 26.90625 
L 35.09375 26.90625 
C 28.296875 26.90625 21.09375 26.90625 15.296875 24.796875 
C 8.09375 22.203125 4.90625 16.796875 4.90625 11.796875 
C 4.90625 5.09375 10.703125 -1.203125 20.203125 -1.203125 
C 25.796875 -1.203125 31.59375 0.90625 36.59375 5 
L 36.59375 0 
L 43.40625 0 
L 43.40625 28.296875 
C 43.40625 32 43.296875 35.5 41.203125 39.09375 
C 38.203125 44 32.40625 46.59375 25.296875 46.59375 
C 19.203125 46.59375 13.296875 44.703125 9 40.296875 
z
M 36.796875 21.40625 
L 36.796875 18.296875 
C 36.796875 16 36.796875 13 33.703125 9.703125 
C 32 8 27.703125 4.296875 21.703125 4.296875 
C 15.59375 4.296875 12.09375 8.203125 12.09375 12.203125 
C 12.09375 15.59375 14.40625 19.296875 20.09375 20.703125 
C 24.296875 21.703125 30.40625 21.40625 35.203125 21.40625 
z
" id="Inconsolata-97"/>
      <path d="M 9.90625 45.59375 
L 9.90625 -0.09375 
L 17.09375 -0.09375 
L 17.09375 22.09375 
C 17.09375 24.90625 17.203125 27.90625 20.296875 32.796875 
C 24.5 39.40625 29.90625 40.5 33.203125 40.5 
C 37 40.5 39.40625 38.703125 40.703125 37.09375 
C 41.296875 36.296875 41.59375 35.5 42.40625 34.796875 
L 45.796875 41.703125 
C 42.90625 44.703125 38.703125 46.703125 33.59375 46.703125 
C 26.90625 46.703125 20.09375 43.296875 17.09375 36.796875 
L 17.40625 45.59375 
z
" id="Inconsolata-114"/>
      <path d="M 12.5 31.40625 
C 12.5 36.90625 17.09375 41.40625 22.59375 41.40625 
C 28.203125 41.40625 32.703125 36.90625 32.703125 31.40625 
C 32.703125 25.90625 28.203125 21.40625 22.59375 21.40625 
C 17 21.40625 12.5 25.90625 12.5 31.40625 
z
M 23 47.09375 
C 13.90625 47.09375 6 39.90625 6 31 
C 6 26 8.5 21.296875 12.703125 18.59375 
C 9.40625 15.796875 7.5 12.703125 7.5 9.796875 
C 7.5 7.90625 8.296875 5.203125 11.203125 3.703125 
C 6.296875 0.59375 3.796875 -2.796875 3.796875 -6.40625 
C 3.796875 -11.40625 8.40625 -17.296875 24.40625 -17.296875 
C 39.90625 -17.296875 45.5 -9.40625 45.5 -3.296875 
C 45.5 0.703125 43.203125 4.703125 38.40625 6.59375 
C 33.59375 8.59375 28.09375 7.90625 22.90625 7.90625 
C 19.5 7.90625 17.296875 8.203125 16.40625 8.5 
C 14.59375 9 13.59375 10.09375 13.59375 11.5 
C 13.59375 13.90625 16.40625 16.203125 16.90625 16.59375 
C 18.703125 15.90625 20.703125 15.59375 22.703125 15.59375 
C 31.703125 15.59375 39.09375 22.796875 39.09375 31.203125 
C 39.09375 34 38.296875 36.703125 36.796875 39 
C 39.203125 40.40625 42 41.203125 44.796875 41.203125 
C 45.703125 41.203125 46.5 41.09375 47.40625 40.90625 
L 46.59375 46.796875 
C 42 47.203125 37.40625 45.703125 33.90625 42.796875 
C 31 45.59375 27.203125 47.09375 23 47.09375 
z
M 16.09375 2.40625 
C 17.796875 2.203125 20.203125 2 23.703125 1.796875 
C 27.09375 1.703125 30.796875 2 33.40625 1.59375 
C 37.59375 0.90625 38.90625 -1.703125 38.90625 -3.703125 
C 38.90625 -5.703125 37.703125 -8.09375 34.59375 -9.796875 
C 31.203125 -11.59375 27.40625 -11.796875 24.296875 -11.796875 
C 22.203125 -11.796875 18.296875 -11.703125 14.90625 -10.296875 
C 11.203125 -8.796875 10.40625 -6.296875 10.40625 -4.703125 
C 10.40625 -1.40625 13.5 1 16.09375 2.40625 
z
" id="Inconsolata-103"/>
     </defs>
     <g style="fill:#262626;" transform="translate(16.523125 288.44)rotate(-90)scale(0.14 -0.14)">
      <use xlink:href="#Inconsolata-84"/>
      <use x="49.999985" xlink:href="#Inconsolata-105"/>
      <use x="99.999969" xlink:href="#Inconsolata-101"/>
      <use x="149.999954" xlink:href="#Inconsolata-109"/>
      <use x="199.999939" xlink:href="#Inconsolata-112"/>
      <use x="249.999924" xlink:href="#Inconsolata-111"/>
      <use x="299.999908" xlink:href="#Inconsolata-32"/>
      <use x="349.999893" xlink:href="#Inconsolata-100"/>
      <use x="399.999878" xlink:href="#Inconsolata-101"/>
      <use x="449.999863" xlink:href="#Inconsolata-32"/>
      <use x="499.999847" xlink:href="#Inconsolata-100"/>
      <use x="549.999832" xlink:href="#Inconsolata-101"/>
      <use x="599.999817" xlink:href="#Inconsolata-115"/>
      <use x="649.999802" xlink:href="#Inconsolata-99"/>
      <use x="699.999786" xlink:href="#Inconsolata-97"/>
      <use x="749.999771" xlink:href="#Inconsolata-114"/>
      <use x="799.999756" xlink:href="#Inconsolata-103"/>
      <use x="849.999741" xlink:href="#Inconsolata-97"/>
      <use x="899.999725" xlink:href="#Inconsolata-32"/>
      <use x="949.99971" xlink:href="#Inconsolata-40"/>
      <use x="999.999695" xlink:href="#Inconsolata-115"/>
      <use x="1049.99968" xlink:href="#Inconsolata-41"/>
     </g>
    </g>
   </g>
   <g id="line2d_11">
    <path clip-path="url(#p7ec447a9ad)" d="M 83.01858 383.027246 
L 106.311715 381.676033 
L 145.133607 377.135622 
L 261.599285 360.039842 
L 455.708747 327.828942 
L 843.92767 259.899025 
" style="fill:none;stroke:#1f78b5;stroke-dasharray:5.55,2.4;stroke-dashoffset:0;stroke-width:1.5;"/>
    <defs>
     <path d="M 0 1.5 
C 0.397805 1.5 0.77937 1.341951 1.06066 1.06066 
C 1.341951 0.77937 1.5 0.397805 1.5 0 
C 1.5 -0.397805 1.341951 -0.77937 1.06066 -1.06066 
C 0.77937 -1.341951 0.397805 -1.5 0 -1.5 
C -0.397805 -1.5 -0.77937 -1.341951 -1.06066 -1.06066 
C -1.341951 -0.77937 -1.5 -0.397805 -1.5 0 
C -1.5 0.397805 -1.341951 0.77937 -1.06066 1.06066 
C -0.77937 1.341951 -0.397805 1.5 0 1.5 
z
" id="m4ab79c632e" style="stroke:#1f78b5;"/>
    </defs>
    <g clip-path="url(#p7ec447a9ad)">
     <use style="fill:#1f78b5;stroke:#1f78b5;" x="83.01858" xlink:href="#m4ab79c632e" y="383.027246"/>
     <use style="fill:#1f78b5;stroke:#1f78b5;" x="106.311715" xlink:href="#m4ab79c632e" y="381.676033"/>
     <use style="fill:#1f78b5;stroke:#1f78b5;" x="145.133607" xlink:href="#m4ab79c632e" y="377.135622"/>
     <use style="fill:#1f78b5;stroke:#1f78b5;" x="261.599285" xlink:href="#m4ab79c632e" y="360.039842"/>
     <use style="fill:#1f78b5;stroke:#1f78b5;" x="455.708747" xlink:href="#m4ab79c632e" y="327.828942"/>
     <use style="fill:#1f78b5;stroke:#1f78b5;" x="843.92767" xlink:href="#m4ab79c632e" y="259.899025"/>
    </g>
   </g>
   <g id="line2d_12">
    <path clip-path="url(#p7ec447a9ad)" d="M 83.01858 384.403636 
L 106.311715 383.270632 
L 145.133607 384.244176 
L 261.599285 383.396521 
L 455.708747 381.331935 
L 843.92767 376.254396 
" style="fill:none;stroke:#1f78b5;stroke-linecap:round;stroke-width:1.5;"/>
    <g clip-path="url(#p7ec447a9ad)">
     <use style="fill:#1f78b5;stroke:#1f78b5;" x="83.01858" xlink:href="#m4ab79c632e" y="384.403636"/>
     <use style="fill:#1f78b5;stroke:#1f78b5;" x="106.311715" xlink:href="#m4ab79c632e" y="383.270632"/>
     <use style="fill:#1f78b5;stroke:#1f78b5;" x="145.133607" xlink:href="#m4ab79c632e" y="384.244176"/>
     <use style="fill:#1f78b5;stroke:#1f78b5;" x="261.599285" xlink:href="#m4ab79c632e" y="383.396521"/>
     <use style="fill:#1f78b5;stroke:#1f78b5;" x="455.708747" xlink:href="#m4ab79c632e" y="381.331935"/>
     <use style="fill:#1f78b5;stroke:#1f78b5;" x="843.92767" xlink:href="#m4ab79c632e" y="376.254396"/>
    </g>
   </g>
   <g id="line2d_13">
    <path clip-path="url(#p7ec447a9ad)" d="M 83.01858 384.059539 
L 106.311715 381.8271 
L 145.133607 375.574593 
L 261.599285 352.310233 
L 455.708747 307.59432 
L 843.92767 237.70892 
" style="fill:none;stroke:#f48042;stroke-dasharray:5.55,2.4;stroke-dashoffset:0;stroke-width:1.5;"/>
    <defs>
     <path d="M -0 3 
L 3 -3 
L -3 -3 
z
" id="mbf8776f4b7" style="stroke:#f48042;stroke-linejoin:miter;"/>
    </defs>
    <g clip-path="url(#p7ec447a9ad)">
     <use style="fill:#f48042;stroke:#f48042;stroke-linejoin:miter;" x="83.01858" xlink:href="#mbf8776f4b7" y="384.059539"/>
     <use style="fill:#f48042;stroke:#f48042;stroke-linejoin:miter;" x="106.311715" xlink:href="#mbf8776f4b7" y="381.8271"/>
     <use style="fill:#f48042;stroke:#f48042;stroke-linejoin:miter;" x="145.133607" xlink:href="#mbf8776f4b7" y="375.574593"/>
     <use style="fill:#f48042;stroke:#f48042;stroke-linejoin:miter;" x="261.599285" xlink:href="#mbf8776f4b7" y="352.310233"/>
     <use style="fill:#f48042;stroke:#f48042;stroke-linejoin:miter;" x="455.708747" xlink:href="#mbf8776f4b7" y="307.59432"/>
     <use style="fill:#f48042;stroke:#f48042;stroke-linejoin:miter;" x="843.92767" xlink:href="#mbf8776f4b7" y="237.70892"/>
    </g>
   </g>
   <g id="line2d_14">
    <path clip-path="url(#p7ec447a9ad)" d="M 83.01858 380.912304 
L 106.311715 367.400175 
L 145.133607 336.330673 
L 261.599285 282.206625 
L 455.708747 207.76403 
L 843.92767 141.025865 
" style="fill:none;stroke:#f48042;stroke-linecap:round;stroke-width:1.5;"/>
    <g clip-path="url(#p7ec447a9ad)">
     <use style="fill:#f48042;stroke:#f48042;stroke-linejoin:miter;" x="83.01858" xlink:href="#mbf8776f4b7" y="380.912304"/>
     <use style="fill:#f48042;stroke:#f48042;stroke-linejoin:miter;" x="106.311715" xlink:href="#mbf8776f4b7" y="367.400175"/>
     <use style="fill:#f48042;stroke:#f48042;stroke-linejoin:miter;" x="145.133607" xlink:href="#mbf8776f4b7" y="336.330673"/>
     <use style="fill:#f48042;stroke:#f48042;stroke-linejoin:miter;" x="261.599285" xlink:href="#mbf8776f4b7" y="282.206625"/>
     <use style="fill:#f48042;stroke:#f48042;stroke-linejoin:miter;" x="455.708747" xlink:href="#mbf8776f4b7" y="207.76403"/>
     <use style="fill:#f48042;stroke:#f48042;stroke-linejoin:miter;" x="843.92767" xlink:href="#mbf8776f4b7" y="141.025865"/>
    </g>
   </g>
   <g id="line2d_15">
    <path clip-path="url(#p7ec447a9ad)" d="M 83.01858 383.950435 
L 106.311715 382.120842 
L 145.133607 375.356385 
L 261.599285 346.527714 
L 455.708747 300.98093 
L 843.92767 203.349508 
" style="fill:none;stroke:#33a12b;stroke-dasharray:5.55,2.4;stroke-dashoffset:0;stroke-width:1.5;"/>
    <defs>
     <path d="M 0 3 
C 0.795609 3 1.55874 2.683901 2.12132 2.12132 
C 2.683901 1.55874 3 0.795609 3 0 
C 3 -0.795609 2.683901 -1.55874 2.12132 -2.12132 
C 1.55874 -2.683901 0.795609 -3 0 -3 
C -0.795609 -3 -1.55874 -2.683901 -2.12132 -2.12132 
C -2.683901 -1.55874 -3 -0.795609 -3 0 
C -3 0.795609 -2.683901 1.55874 -2.12132 2.12132 
C -1.55874 2.683901 -0.795609 3 0 3 
z
" id="m42289533a8" style="stroke:#33a12b;"/>
    </defs>
    <g clip-path="url(#p7ec447a9ad)">
     <use style="fill:#33a12b;stroke:#33a12b;" x="83.01858" xlink:href="#m42289533a8" y="383.950435"/>
     <use style="fill:#33a12b;stroke:#33a12b;" x="106.311715" xlink:href="#m42289533a8" y="382.120842"/>
     <use style="fill:#33a12b;stroke:#33a12b;" x="145.133607" xlink:href="#m42289533a8" y="375.356385"/>
     <use style="fill:#33a12b;stroke:#33a12b;" x="261.599285" xlink:href="#m42289533a8" y="346.527714"/>
     <use style="fill:#33a12b;stroke:#33a12b;" x="455.708747" xlink:href="#m42289533a8" y="300.98093"/>
     <use style="fill:#33a12b;stroke:#33a12b;" x="843.92767" xlink:href="#m42289533a8" y="203.349508"/>
    </g>
   </g>
   <g id="line2d_16">
    <path clip-path="url(#p7ec447a9ad)" d="M 83.01858 382.565651 
L 106.311715 370.757226 
L 145.133607 345.94023 
L 261.599285 273.730073 
L 455.708747 195.200268 
L 843.92767 38.476364 
" style="fill:none;stroke:#33a12b;stroke-linecap:round;stroke-width:1.5;"/>
    <g clip-path="url(#p7ec447a9ad)">
     <use style="fill:#33a12b;stroke:#33a12b;" x="83.01858" xlink:href="#m42289533a8" y="382.565651"/>
     <use style="fill:#33a12b;stroke:#33a12b;" x="106.311715" xlink:href="#m42289533a8" y="370.757226"/>
     <use style="fill:#33a12b;stroke:#33a12b;" x="145.133607" xlink:href="#m42289533a8" y="345.94023"/>
     <use style="fill:#33a12b;stroke:#33a12b;" x="261.599285" xlink:href="#m42289533a8" y="273.730073"/>
     <use style="fill:#33a12b;stroke:#33a12b;" x="455.708747" xlink:href="#m42289533a8" y="195.200268"/>
     <use style="fill:#33a12b;stroke:#33a12b;" x="843.92767" xlink:href="#m42289533a8" y="38.476364"/>
    </g>
   </g>
   <g id="line2d_17">
    <path clip-path="url(#p7ec447a9ad)" d="M 83.01858 384.017576 
L 106.311715 382.448154 
L 145.133607 376.3635 
L 261.599285 351.512934 
L 455.708747 311.916523 
L 843.92767 216.215404 
" style="fill:none;stroke:#693d99;stroke-dasharray:5.55,2.4;stroke-dashoffset:0;stroke-width:1.5;"/>
    <defs>
     <path d="M -3 3 
L 3 -3 
M -3 -3 
L 3 3 
" id="mfb0d724e2b" style="stroke:#693d99;"/>
    </defs>
    <g clip-path="url(#p7ec447a9ad)">
     <use style="fill:#693d99;stroke:#693d99;" x="83.01858" xlink:href="#mfb0d724e2b" y="384.017576"/>
     <use style="fill:#693d99;stroke:#693d99;" x="106.311715" xlink:href="#mfb0d724e2b" y="382.448154"/>
     <use style="fill:#693d99;stroke:#693d99;" x="145.133607" xlink:href="#mfb0d724e2b" y="376.3635"/>
     <use style="fill:#693d99;stroke:#693d99;" x="261.599285" xlink:href="#mfb0d724e2b" y="351.512934"/>
     <use style="fill:#693d99;stroke:#693d99;" x="455.708747" xlink:href="#mfb0d724e2b" y="311.916523"/>
     <use style="fill:#693d99;stroke:#693d99;" x="843.92767" xlink:href="#mfb0d724e2b" y="216.215404"/>
    </g>
   </g>
   <g id="line2d_18">
    <path clip-path="url(#p7ec447a9ad)" d="M 83.01858 383.396521 
L 106.311715 379.594661 
L 145.133607 364.009554 
L 261.599285 323.691377 
L 455.708747 267.42721 
L 843.92767 153.178388 
" style="fill:none;stroke:#693d99;stroke-linecap:round;stroke-width:1.5;"/>
    <g clip-path="url(#p7ec447a9ad)">
     <use style="fill:#693d99;stroke:#693d99;" x="83.01858" xlink:href="#mfb0d724e2b" y="383.396521"/>
     <use style="fill:#693d99;stroke:#693d99;" x="106.311715" xlink:href="#mfb0d724e2b" y="379.594661"/>
     <use style="fill:#693d99;stroke:#693d99;" x="145.133607" xlink:href="#mfb0d724e2b" y="364.009554"/>
     <use style="fill:#693d99;stroke:#693d99;" x="261.599285" xlink:href="#mfb0d724e2b" y="323.691377"/>
     <use style="fill:#693d99;stroke:#693d99;" x="455.708747" xlink:href="#mfb0d724e2b" y="267.42721"/>
     <use style="fill:#693d99;stroke:#693d99;" x="843.92767" xlink:href="#mfb0d724e2b" y="153.178388"/>
    </g>
   </g>
   <g id="patch_3">
    <path d="M 44.973125 401.7 
L 44.973125 21.18 
" style="fill:none;stroke:#cccccc;stroke-linecap:square;stroke-linejoin:miter;stroke-width:0.8;"/>
   </g>
   <g id="patch_4">
    <path d="M 881.973125 401.7 
L 881.973125 21.18 
" style="fill:none;stroke:#cccccc;stroke-linecap:square;stroke-linejoin:miter;stroke-width:0.8;"/>
   </g>
   <g id="patch_5">
    <path d="M 44.973125 401.7 
L 881.973125 401.7 
" style="fill:none;stroke:#cccccc;stroke-linecap:square;stroke-linejoin:miter;stroke-width:0.8;"/>
   </g>
   <g id="patch_6">
    <path d="M 44.973125 21.18 
L 881.973125 21.18 
" style="fill:none;stroke:#cccccc;stroke-linecap:square;stroke-linejoin:miter;stroke-width:0.8;"/>
   </g>
   <g id="text_13">
    <!-- Tasa de perdida de paquetes de 2% -->
    <defs>
     <path d="M 37.296875 39 
C 37.296875 38.90625 34.09375 46.796875 24 46.796875 
C 14 46.796875 4.203125 38.703125 4.203125 23.203125 
C 4.203125 8.40625 12.90625 -1.09375 23 -1.09375 
C 28.796875 -1.09375 34.09375 2.203125 37 7.296875 
L 37 -16.703125 
L 44.09375 -16.703125 
L 44.09375 45.59375 
L 37.296875 45.59375 
z
M 24.296875 40.90625 
C 28.40625 40.90625 33.59375 38.796875 35.59375 33.203125 
C 36.5 30.59375 36.703125 27.796875 36.703125 22.203125 
C 36.703125 18.796875 36.5 16.296875 35.796875 13.90625 
C 34 8.5 29.296875 5.296875 24.59375 5.296875 
C 18 5.296875 11.40625 11.296875 11.40625 24.203125 
C 11.40625 36.203125 18.203125 40.90625 24.296875 40.90625 
z
" id="Inconsolata-113"/>
     <path d="M 6.203125 45.59375 
L 6.203125 20.09375 
C 6.203125 16.203125 6.203125 12.203125 8 8.09375 
C 10.59375 2.09375 16.203125 -1.203125 22.203125 -1.203125 
C 27.90625 -1.203125 33.296875 1.90625 36.296875 6.90625 
L 36.203125 3.5 
C 36.203125 2.296875 36.203125 1.09375 36.40625 0 
L 44 0 
C 43.5 1.296875 43.40625 2.796875 43.40625 4.09375 
L 43.40625 45.59375 
L 36.203125 45.59375 
L 36.203125 20.5 
C 36.203125 17 35.90625 14.296875 34.40625 11.5 
C 32.296875 7.59375 28.203125 4.703125 23.796875 4.703125 
C 20.296875 4.703125 16.90625 6.703125 15.09375 10.296875 
C 13.5 13.5 13.5 17.09375 13.5 20.09375 
L 13.5 45.59375 
z
" id="Inconsolata-117"/>
     <path d="M 18.796875 57.90625 
L 17.90625 45.59375 
L 7 45.59375 
L 6.90625 39.703125 
L 17.59375 39.703125 
C 17 31.90625 16.703125 24.09375 16.703125 16.40625 
C 16.703125 12.296875 16.703125 7.703125 19.40625 3.90625 
C 21.59375 0.90625 25.09375 -0.90625 29.796875 -0.90625 
C 35.203125 -0.90625 40.5 1.40625 44.40625 4.203125 
L 42.203125 9.90625 
C 38.296875 7 34.703125 5.703125 31.90625 5.703125 
C 28.5 5.703125 25 7.59375 24.203125 13.09375 
C 24.203125 13.5 23.90625 15.203125 23.90625 21.90625 
C 23.90625 27.796875 24.203125 33.796875 24.796875 39.703125 
L 39.796875 39.703125 
L 39.796875 45.703125 
L 24.90625 45.703125 
C 24.90625 45.703125 25.59375 53.90625 26.09375 56.5 
C 26.203125 57.5 27 58.09375 26.59375 59.203125 
z
" id="Inconsolata-116"/>
     <path d="M 39 62.296875 
L 4.5 0 
L 10.90625 0 
L 45.796875 62.296875 
z
M 13.90625 63.40625 
C 8 63.40625 2.796875 58 2.796875 50.296875 
C 2.796875 42.796875 7.90625 37.203125 14 37.203125 
C 20.09375 37.203125 25.203125 42.796875 25.203125 50.203125 
C 25.203125 57.796875 20 63.40625 13.90625 63.40625 
z
M 13.796875 58.09375 
C 15.40625 58.09375 18.90625 57.09375 18.90625 49.90625 
C 18.90625 44.09375 15.90625 42.59375 13.90625 42.59375 
C 12.09375 42.59375 8.796875 43.90625 8.796875 50.59375 
C 8.796875 56.59375 11.796875 58.09375 13.796875 58.09375 
z
M 48.203125 11.90625 
C 48.203125 19.40625 43.09375 24.90625 37 24.90625 
C 31 24.90625 25.796875 19.40625 25.796875 11.90625 
C 25.796875 4.40625 30.90625 -1.09375 37 -1.09375 
C 43.09375 -1.09375 48.203125 4.40625 48.203125 11.90625 
z
M 37 19.703125 
C 39.09375 19.703125 42.203125 18.09375 42.203125 11.703125 
C 42.203125 5.703125 39.203125 4 37.09375 4 
C 34.703125 4 31.796875 6 31.796875 11.90625 
C 31.796875 18 34.90625 19.703125 37 19.703125 
z
" id="Inconsolata-37"/>
    </defs>
    <g style="fill:#262626;" transform="translate(364.473125 15.18)scale(0.12 -0.12)">
     <use xlink:href="#Inconsolata-84"/>
     <use x="49.999985" xlink:href="#Inconsolata-97"/>
     <use x="99.999969" xlink:href="#Inconsolata-115"/>
     <use x="149.999954" xlink:href="#Inconsolata-97"/>
     <use x="199.999939" xlink:href="#Inconsolata-32"/>
     <use x="249.999924" xlink:href="#Inconsolata-100"/>
     <use x="299.999908" xlink:href="#Inconsolata-101"/>
     <use x="349.999893" xlink:href="#Inconsolata-32"/>
     <use x="399.999878" xlink:href="#Inconsolata-112"/>
     <use x="449.999863" xlink:href="#Inconsolata-101"/>
     <use x="499.999847" xlink:href="#Inconsolata-114"/>
     <use x="549.999832" xlink:href="#Inconsolata-100"/>
     <use x="599.999817" xlink:href="#Inconsolata-105"/>
     <use x="649.999802" xlink:href="#Inconsolata-100"/>
     <use x="699.999786" xlink:href="#Inconsolata-97"/>
     <use x="749.999771" xlink:href="#Inconsolata-32"/>
     <use x="799.999756" xlink:href="#Inconsolata-100"/>
     <use x="849.999741" xlink:href="#Inconsolata-101"/>
     <use x="899.999725" xlink:href="#Inconsolata-32"/>
     <use x="949.99971" xlink:href="#Inconsolata-112"/>
     <use x="999.999695" xlink:href="#Inconsolata-97"/>
     <use x="1049.99968" xlink:href="#Inconsolata-113"/>
     <use x="1099.999664" xlink:href="#Inconsolata-117"/>
     <use x="1149.999649" xlink:href="#Inconsolata-101"/>
     <use x="1199.999634" xlink:href="#Inconsolata-116"/>
     <use x="1249.999619" xlink:href="#Inconsolata-101"/>
     <use x="1299.999603" xlink:href="#Inconsolata-115"/>
     <use x="1349.999588" xlink:href="#Inconsolata-32"/>
     <use x="1399.999573" xlink:href="#Inconsolata-100"/>
     <use x="1449.999557" xlink:href="#Inconsolata-101"/>
     <use x="1499.999542" xlink:href="#Inconsolata-32"/>
     <use x="1549.999527" xlink:href="#Inconsolata-50"/>
     <use x="1599.999512" xlink:href="#Inconsolata-37"/>
    </g>
   </g>
   <g id="legend_1">
    <g id="line2d_19">
     <path d="M 30.573125 467.08 
L 58.573125 467.08 
" style="fill:none;stroke:#1f78b5;stroke-dasharray:5.55,2.4;stroke-dashoffset:0;stroke-width:1.5;"/>
    </g>
    <g id="line2d_20">
     <g>
      <use style="fill:#1f78b5;stroke:#1f78b5;" x="44.573125" xlink:href="#m4ab79c632e" y="467.08"/>
     </g>
    </g>
    <g id="text_14">
     <!-- bbr       HTTP/1.1 (TLSv1.2) -->
     <defs>
      <path d="M 5.90625 66.5 
L 5.90625 0 
L 10.59375 0 
L 13.09375 6 
C 16.09375 1.5 21.09375 -1.203125 26.59375 -1.203125 
C 36 -1.203125 45.703125 6.796875 45.703125 23.40625 
C 45.703125 39.296875 36.296875 46.703125 27.296875 46.703125 
C 21.5 46.703125 16.09375 43.59375 13.203125 38.59375 
L 13.203125 64.203125 
C 13.203125 64.796875 13.296875 65 13.796875 65.40625 
C 14 65.5 14.5 65.90625 14.40625 66.5 
z
M 24.796875 40.5 
C 29.09375 40.5 38.203125 38 38.203125 21.796875 
C 38.203125 7.90625 29.203125 5.296875 24.703125 5.296875 
C 21.59375 5.296875 14.703125 6.5 13.5 15.296875 
C 13.203125 17.59375 13.203125 20.296875 13.203125 24.296875 
C 13.203125 28.40625 13.40625 31.40625 14.40625 33.90625 
C 16.09375 38 20.296875 40.5 24.796875 40.5 
z
" id="Inconsolata-98"/>
      <path d="M 5.40625 62.296875 
L 5.40625 0 
L 12.59375 0 
L 12.59375 29.59375 
L 37 29.59375 
L 37 -0.09375 
L 44 -0.09375 
L 44 60 
C 44 61.09375 44.796875 61.09375 44.796875 61.796875 
C 44.796875 62 44.703125 62.09375 44.703125 62.296875 
L 37.09375 62.296875 
L 37.09375 35.59375 
L 12.59375 35.59375 
L 12.59375 59.796875 
C 12.59375 60.90625 13.296875 61 13.296875 61.796875 
C 13.296875 62 13.203125 62.09375 13.203125 62.296875 
z
" id="Inconsolata-72"/>
      <path d="M 5.796875 62.296875 
L 5.796875 0 
L 13.09375 0 
L 13.09375 27.5 
L 25.296875 27.5 
C 29.203125 27.5 32.90625 27.59375 36.703125 29.5 
C 42.5 32.40625 45.5 38.40625 45.5 44.703125 
C 45.5 51 42.5 57.09375 36.59375 60.09375 
C 32.703125 62.203125 28.796875 62.296875 24.796875 62.296875 
z
M 13.09375 55.703125 
L 24.796875 55.703125 
C 27.40625 55.703125 29.90625 55.59375 32.5 54.40625 
C 36.296875 52.40625 38.40625 48.40625 38.40625 44.40625 
C 38.40625 40.40625 36.40625 36.703125 32.796875 34.90625 
C 30.40625 33.703125 28 33.59375 25.59375 33.59375 
L 13 33.59375 
z
" id="Inconsolata-80"/>
      <path d="M 6.296875 -1.296875 
L 12.203125 -4.296875 
L 43.59375 63.40625 
L 37.703125 66.40625 
z
" id="Inconsolata-47"/>
      <path d="M 29.703125 4.59375 
C 29.703125 7.703125 27.09375 10.296875 23.796875 10.296875 
C 20.5 10.296875 17.90625 7.703125 17.90625 4.59375 
C 17.90625 1.40625 20.5 -1.203125 23.796875 -1.203125 
C 27.09375 -1.203125 29.703125 1.40625 29.703125 4.59375 
z
" id="Inconsolata-46"/>
      <path d="M 6.59375 62.296875 
L 6.59375 -0.09375 
L 43.90625 -0.09375 
L 43.90625 5.90625 
L 13.796875 5.90625 
L 13.796875 58.90625 
C 13.796875 59.796875 14.09375 60.09375 14.40625 60.703125 
C 14.5 61 14.796875 61.5 14.703125 62.296875 
z
" id="Inconsolata-76"/>
      <path d="M 43.40625 54.796875 
C 39.203125 59.90625 33 62.59375 26.203125 62.59375 
C 14.90625 62.59375 7.203125 55.203125 7.203125 46.59375 
C 7.203125 43 8.59375 38.296875 13.796875 34.5 
C 19.59375 30.203125 28.59375 28.09375 33.296875 25.09375 
C 37.40625 22.59375 38.5 19.296875 38.5 16.5 
C 38.5 11.09375 33.90625 5.203125 24.90625 5.203125 
C 18.09375 5.203125 12.796875 8.59375 10 12.09375 
C 9.703125 12.5 9.703125 12.703125 9.703125 13.09375 
C 9.703125 13.296875 9.703125 13.90625 9.296875 14.09375 
L 5.09375 6.90625 
C 10 1.59375 17 -1.09375 24.703125 -1.09375 
C 39.90625 -1.09375 45.5 9.09375 45.5 16.90625 
C 45.5 20.203125 44.5 24.5 40.59375 28.203125 
C 35.203125 33.296875 26.40625 35.09375 20.703125 38.40625 
C 15.5 41.5 14.40625 45.203125 14.40625 47.703125 
C 14.40625 52.5 18.5 56.796875 25.59375 56.796875 
C 31.40625 56.796875 35.90625 54.203125 38.296875 50.703125 
C 38.59375 50.296875 38.5 50.09375 38.5 49.703125 
C 38.5 49.09375 38.796875 48.90625 39 48.90625 
z
" id="Inconsolata-83"/>
      <path d="M 3.90625 45.703125 
L 22 -0.40625 
L 27.703125 -0.40625 
L 38.796875 25.703125 
C 41.5 32.09375 44.09375 38.703125 45.59375 45.703125 
L 39.09375 45.703125 
C 37.90625 39 35.5 32.703125 32.90625 26.703125 
L 25.59375 9.703125 
L 12.40625 43.09375 
C 12.296875 43.296875 12.203125 43.5 12.203125 43.703125 
C 12.203125 44.296875 12.703125 44.90625 12.5 45.703125 
z
" id="Inconsolata-118"/>
     </defs>
     <g style="fill:#262626;" transform="translate(69.773125 471.98)scale(0.14 -0.14)">
      <use xlink:href="#Inconsolata-98"/>
      <use x="49.999985" xlink:href="#Inconsolata-98"/>
      <use x="99.999969" xlink:href="#Inconsolata-114"/>
      <use x="149.999954" xlink:href="#Inconsolata-32"/>
      <use x="199.999939" xlink:href="#Inconsolata-32"/>
      <use x="249.999924" xlink:href="#Inconsolata-32"/>
      <use x="299.999908" xlink:href="#Inconsolata-32"/>
      <use x="349.999893" xlink:href="#Inconsolata-32"/>
      <use x="399.999878" xlink:href="#Inconsolata-32"/>
      <use x="449.999863" xlink:href="#Inconsolata-32"/>
      <use x="499.999847" xlink:href="#Inconsolata-72"/>
      <use x="549.999832" xlink:href="#Inconsolata-84"/>
      <use x="599.999817" xlink:href="#Inconsolata-84"/>
      <use x="649.999802" xlink:href="#Inconsolata-80"/>
      <use x="699.999786" xlink:href="#Inconsolata-47"/>
      <use x="749.999771" xlink:href="#Inconsolata-49"/>
      <use x="799.999756" xlink:href="#Inconsolata-46"/>
      <use x="849.999741" xlink:href="#Inconsolata-49"/>
      <use x="899.999725" xlink:href="#Inconsolata-32"/>
      <use x="949.99971" xlink:href="#Inconsolata-40"/>
      <use x="999.999695" xlink:href="#Inconsolata-84"/>
      <use x="1049.99968" xlink:href="#Inconsolata-76"/>
      <use x="1099.999664" xlink:href="#Inconsolata-83"/>
      <use x="1149.999649" xlink:href="#Inconsolata-118"/>
      <use x="1199.999634" xlink:href="#Inconsolata-49"/>
      <use x="1249.999619" xlink:href="#Inconsolata-46"/>
      <use x="1299.999603" xlink:href="#Inconsolata-50"/>
      <use x="1349.999588" xlink:href="#Inconsolata-41"/>
     </g>
    </g>
    <g id="line2d_21">
     <path d="M 30.573125 486.33 
L 58.573125 486.33 
" style="fill:none;stroke:#1f78b5;stroke-linecap:round;stroke-width:1.5;"/>
    </g>
    <g id="line2d_22">
     <g>
      <use style="fill:#1f78b5;stroke:#1f78b5;" x="44.573125" xlink:href="#m4ab79c632e" y="486.33"/>
     </g>
    </g>
    <g id="text_15">
     <!-- bbr       HTTP/2 -->
     <g style="fill:#262626;" transform="translate(69.773125 491.23)scale(0.14 -0.14)">
      <use xlink:href="#Inconsolata-98"/>
      <use x="49.999985" xlink:href="#Inconsolata-98"/>
      <use x="99.999969" xlink:href="#Inconsolata-114"/>
      <use x="149.999954" xlink:href="#Inconsolata-32"/>
      <use x="199.999939" xlink:href="#Inconsolata-32"/>
      <use x="249.999924" xlink:href="#Inconsolata-32"/>
      <use x="299.999908" xlink:href="#Inconsolata-32"/>
      <use x="349.999893" xlink:href="#Inconsolata-32"/>
      <use x="399.999878" xlink:href="#Inconsolata-32"/>
      <use x="449.999863" xlink:href="#Inconsolata-32"/>
      <use x="499.999847" xlink:href="#Inconsolata-72"/>
      <use x="549.999832" xlink:href="#Inconsolata-84"/>
      <use x="599.999817" xlink:href="#Inconsolata-84"/>
      <use x="649.999802" xlink:href="#Inconsolata-80"/>
      <use x="699.999786" xlink:href="#Inconsolata-47"/>
      <use x="749.999771" xlink:href="#Inconsolata-50"/>
     </g>
    </g>
    <g id="line2d_23">
     <path d="M 231.773125 467.08 
L 259.773125 467.08 
" style="fill:none;stroke:#f48042;stroke-dasharray:5.55,2.4;stroke-dashoffset:0;stroke-width:1.5;"/>
    </g>
    <g id="line2d_24">
     <g>
      <use style="fill:#f48042;stroke:#f48042;stroke-linejoin:miter;" x="245.773125" xlink:href="#mbf8776f4b7" y="467.08"/>
     </g>
    </g>
    <g id="text_16">
     <!-- cubic     HTTP/1.1 (TLSv1.2) -->
     <g style="fill:#262626;" transform="translate(270.973125 471.98)scale(0.14 -0.14)">
      <use xlink:href="#Inconsolata-99"/>
      <use x="49.999985" xlink:href="#Inconsolata-117"/>
      <use x="99.999969" xlink:href="#Inconsolata-98"/>
      <use x="149.999954" xlink:href="#Inconsolata-105"/>
      <use x="199.999939" xlink:href="#Inconsolata-99"/>
      <use x="249.999924" xlink:href="#Inconsolata-32"/>
      <use x="299.999908" xlink:href="#Inconsolata-32"/>
      <use x="349.999893" xlink:href="#Inconsolata-32"/>
      <use x="399.999878" xlink:href="#Inconsolata-32"/>
      <use x="449.999863" xlink:href="#Inconsolata-32"/>
      <use x="499.999847" xlink:href="#Inconsolata-72"/>
      <use x="549.999832" xlink:href="#Inconsolata-84"/>
      <use x="599.999817" xlink:href="#Inconsolata-84"/>
      <use x="649.999802" xlink:href="#Inconsolata-80"/>
      <use x="699.999786" xlink:href="#Inconsolata-47"/>
      <use x="749.999771" xlink:href="#Inconsolata-49"/>
      <use x="799.999756" xlink:href="#Inconsolata-46"/>
      <use x="849.999741" xlink:href="#Inconsolata-49"/>
      <use x="899.999725" xlink:href="#Inconsolata-32"/>
      <use x="949.99971" xlink:href="#Inconsolata-40"/>
      <use x="999.999695" xlink:href="#Inconsolata-84"/>
      <use x="1049.99968" xlink:href="#Inconsolata-76"/>
      <use x="1099.999664" xlink:href="#Inconsolata-83"/>
      <use x="1149.999649" xlink:href="#Inconsolata-118"/>
      <use x="1199.999634" xlink:href="#Inconsolata-49"/>
      <use x="1249.999619" xlink:href="#Inconsolata-46"/>
      <use x="1299.999603" xlink:href="#Inconsolata-50"/>
      <use x="1349.999588" xlink:href="#Inconsolata-41"/>
     </g>
    </g>
    <g id="line2d_25">
     <path d="M 231.773125 486.33 
L 259.773125 486.33 
" style="fill:none;stroke:#f48042;stroke-linecap:round;stroke-width:1.5;"/>
    </g>
    <g id="line2d_26">
     <g>
      <use style="fill:#f48042;stroke:#f48042;stroke-linejoin:miter;" x="245.773125" xlink:href="#mbf8776f4b7" y="486.33"/>
     </g>
    </g>
    <g id="text_17">
     <!-- cubic     HTTP/2 -->
     <g style="fill:#262626;" transform="translate(270.973125 491.23)scale(0.14 -0.14)">
      <use xlink:href="#Inconsolata-99"/>
      <use x="49.999985" xlink:href="#Inconsolata-117"/>
      <use x="99.999969" xlink:href="#Inconsolata-98"/>
      <use x="149.999954" xlink:href="#Inconsolata-105"/>
      <use x="199.999939" xlink:href="#Inconsolata-99"/>
      <use x="249.999924" xlink:href="#Inconsolata-32"/>
      <use x="299.999908" xlink:href="#Inconsolata-32"/>
      <use x="349.999893" xlink:href="#Inconsolata-32"/>
      <use x="399.999878" xlink:href="#Inconsolata-32"/>
      <use x="449.999863" xlink:href="#Inconsolata-32"/>
      <use x="499.999847" xlink:href="#Inconsolata-72"/>
      <use x="549.999832" xlink:href="#Inconsolata-84"/>
      <use x="599.999817" xlink:href="#Inconsolata-84"/>
      <use x="649.999802" xlink:href="#Inconsolata-80"/>
      <use x="699.999786" xlink:href="#Inconsolata-47"/>
      <use x="749.999771" xlink:href="#Inconsolata-50"/>
     </g>
    </g>
    <g id="line2d_27">
     <path d="M 432.973125 467.08 
L 460.973125 467.08 
" style="fill:none;stroke:#33a12b;stroke-dasharray:5.55,2.4;stroke-dashoffset:0;stroke-width:1.5;"/>
    </g>
    <g id="line2d_28">
     <g>
      <use style="fill:#33a12b;stroke:#33a12b;" x="446.973125" xlink:href="#m42289533a8" y="467.08"/>
     </g>
    </g>
    <g id="text_18">
     <!-- reno      HTTP/1.1 (TLSv1.2) -->
     <defs>
      <path d="M 6.796875 0 
L 14.09375 0 
L 14.09375 26.296875 
C 14.09375 29.296875 14.5 31.59375 16.40625 34.09375 
C 18.09375 36.40625 22.5 40.5 27.296875 40.5 
C 29.59375 40.5 31.90625 39.5 33.5 37.59375 
C 36 34.59375 36 30.703125 36 27.5 
L 36 0 
L 43.09375 0 
L 43.09375 27.703125 
C 43.09375 31.203125 43.09375 35 41.5 38.703125 
C 39.203125 43.796875 34.5 46.703125 29.296875 46.703125 
C 23.09375 46.703125 17.5 42.703125 14.09375 37.59375 
L 14.09375 45.59375 
L 6.796875 45.59375 
z
" id="Inconsolata-110"/>
     </defs>
     <g style="fill:#262626;" transform="translate(472.173125 471.98)scale(0.14 -0.14)">
      <use xlink:href="#Inconsolata-114"/>
      <use x="49.999985" xlink:href="#Inconsolata-101"/>
      <use x="99.999969" xlink:href="#Inconsolata-110"/>
      <use x="149.999954" xlink:href="#Inconsolata-111"/>
      <use x="199.999939" xlink:href="#Inconsolata-32"/>
      <use x="249.999924" xlink:href="#Inconsolata-32"/>
      <use x="299.999908" xlink:href="#Inconsolata-32"/>
      <use x="349.999893" xlink:href="#Inconsolata-32"/>
      <use x="399.999878" xlink:href="#Inconsolata-32"/>
      <use x="449.999863" xlink:href="#Inconsolata-32"/>
      <use x="499.999847" xlink:href="#Inconsolata-72"/>
      <use x="549.999832" xlink:href="#Inconsolata-84"/>
      <use x="599.999817" xlink:href="#Inconsolata-84"/>
      <use x="649.999802" xlink:href="#Inconsolata-80"/>
      <use x="699.999786" xlink:href="#Inconsolata-47"/>
      <use x="749.999771" xlink:href="#Inconsolata-49"/>
      <use x="799.999756" xlink:href="#Inconsolata-46"/>
      <use x="849.999741" xlink:href="#Inconsolata-49"/>
      <use x="899.999725" xlink:href="#Inconsolata-32"/>
      <use x="949.99971" xlink:href="#Inconsolata-40"/>
      <use x="999.999695" xlink:href="#Inconsolata-84"/>
      <use x="1049.99968" xlink:href="#Inconsolata-76"/>
      <use x="1099.999664" xlink:href="#Inconsolata-83"/>
      <use x="1149.999649" xlink:href="#Inconsolata-118"/>
      <use x="1199.999634" xlink:href="#Inconsolata-49"/>
      <use x="1249.999619" xlink:href="#Inconsolata-46"/>
      <use x="1299.999603" xlink:href="#Inconsolata-50"/>
      <use x="1349.999588" xlink:href="#Inconsolata-41"/>
     </g>
    </g>
    <g id="line2d_29">
     <path d="M 432.973125 486.33 
L 460.973125 486.33 
" style="fill:none;stroke:#33a12b;stroke-linecap:round;stroke-width:1.5;"/>
    </g>
    <g id="line2d_30">
     <g>
      <use style="fill:#33a12b;stroke:#33a12b;" x="446.973125" xlink:href="#m42289533a8" y="486.33"/>
     </g>
    </g>
    <g id="text_19">
     <!-- reno      HTTP/2 -->
     <g style="fill:#262626;" transform="translate(472.173125 491.23)scale(0.14 -0.14)">
      <use xlink:href="#Inconsolata-114"/>
      <use x="49.999985" xlink:href="#Inconsolata-101"/>
      <use x="99.999969" xlink:href="#Inconsolata-110"/>
      <use x="149.999954" xlink:href="#Inconsolata-111"/>
      <use x="199.999939" xlink:href="#Inconsolata-32"/>
      <use x="249.999924" xlink:href="#Inconsolata-32"/>
      <use x="299.999908" xlink:href="#Inconsolata-32"/>
      <use x="349.999893" xlink:href="#Inconsolata-32"/>
      <use x="399.999878" xlink:href="#Inconsolata-32"/>
      <use x="449.999863" xlink:href="#Inconsolata-32"/>
      <use x="499.999847" xlink:href="#Inconsolata-72"/>
      <use x="549.999832" xlink:href="#Inconsolata-84"/>
      <use x="599.999817" xlink:href="#Inconsolata-84"/>
      <use x="649.999802" xlink:href="#Inconsolata-80"/>
      <use x="699.999786" xlink:href="#Inconsolata-47"/>
      <use x="749.999771" xlink:href="#Inconsolata-50"/>
     </g>
    </g>
    <g id="line2d_31">
     <path d="M 634.173125 467.08 
L 662.173125 467.08 
" style="fill:none;stroke:#693d99;stroke-dasharray:5.55,2.4;stroke-dashoffset:0;stroke-width:1.5;"/>
    </g>
    <g id="line2d_32">
     <g>
      <use style="fill:#693d99;stroke:#693d99;" x="648.173125" xlink:href="#mfb0d724e2b" y="467.08"/>
     </g>
    </g>
    <g id="text_20">
     <!-- westwood  HTTP/1.1 (TLSv1.2) -->
     <defs>
      <path d="M 1.5 45.703125 
L 10.703125 -0.09375 
L 17.203125 -0.09375 
L 25.203125 29.5 
L 33.703125 -0.09375 
L 40.40625 -0.09375 
C 43.5 15 46.09375 30.296875 48 45.59375 
L 41.40625 45.59375 
C 41.59375 40.09375 41.09375 35 37.09375 9 
L 27.5 41.40625 
L 23.09375 41.40625 
L 15.203125 8.90625 
L 8.59375 41.90625 
C 8.40625 42.59375 8.40625 42.90625 8.703125 43.703125 
C 8.796875 44.203125 9.09375 44.90625 8.796875 45.703125 
z
" id="Inconsolata-119"/>
     </defs>
     <g style="fill:#262626;" transform="translate(673.373125 471.98)scale(0.14 -0.14)">
      <use xlink:href="#Inconsolata-119"/>
      <use x="49.999985" xlink:href="#Inconsolata-101"/>
      <use x="99.999969" xlink:href="#Inconsolata-115"/>
      <use x="149.999954" xlink:href="#Inconsolata-116"/>
      <use x="199.999939" xlink:href="#Inconsolata-119"/>
      <use x="249.999924" xlink:href="#Inconsolata-111"/>
      <use x="299.999908" xlink:href="#Inconsolata-111"/>
      <use x="349.999893" xlink:href="#Inconsolata-100"/>
      <use x="399.999878" xlink:href="#Inconsolata-32"/>
      <use x="449.999863" xlink:href="#Inconsolata-32"/>
      <use x="499.999847" xlink:href="#Inconsolata-72"/>
      <use x="549.999832" xlink:href="#Inconsolata-84"/>
      <use x="599.999817" xlink:href="#Inconsolata-84"/>
      <use x="649.999802" xlink:href="#Inconsolata-80"/>
      <use x="699.999786" xlink:href="#Inconsolata-47"/>
      <use x="749.999771" xlink:href="#Inconsolata-49"/>
      <use x="799.999756" xlink:href="#Inconsolata-46"/>
      <use x="849.999741" xlink:href="#Inconsolata-49"/>
      <use x="899.999725" xlink:href="#Inconsolata-32"/>
      <use x="949.99971" xlink:href="#Inconsolata-40"/>
      <use x="999.999695" xlink:href="#Inconsolata-84"/>
      <use x="1049.99968" xlink:href="#Inconsolata-76"/>
      <use x="1099.999664" xlink:href="#Inconsolata-83"/>
      <use x="1149.999649" xlink:href="#Inconsolata-118"/>
      <use x="1199.999634" xlink:href="#Inconsolata-49"/>
      <use x="1249.999619" xlink:href="#Inconsolata-46"/>
      <use x="1299.999603" xlink:href="#Inconsolata-50"/>
      <use x="1349.999588" xlink:href="#Inconsolata-41"/>
     </g>
    </g>
    <g id="line2d_33">
     <path d="M 634.173125 486.33 
L 662.173125 486.33 
" style="fill:none;stroke:#693d99;stroke-linecap:round;stroke-width:1.5;"/>
    </g>
    <g id="line2d_34">
     <g>
      <use style="fill:#693d99;stroke:#693d99;" x="648.173125" xlink:href="#mfb0d724e2b" y="486.33"/>
     </g>
    </g>
    <g id="text_21">
     <!-- westwood  HTTP/2 -->
     <g style="fill:#262626;" transform="translate(673.373125 491.23)scale(0.14 -0.14)">
      <use xlink:href="#Inconsolata-119"/>
      <use x="49.999985" xlink:href="#Inconsolata-101"/>
      <use x="99.999969" xlink:href="#Inconsolata-115"/>
      <use x="149.999954" xlink:href="#Inconsolata-116"/>
      <use x="199.999939" xlink:href="#Inconsolata-119"/>
      <use x="249.999924" xlink:href="#Inconsolata-111"/>
      <use x="299.999908" xlink:href="#Inconsolata-111"/>
      <use x="349.999893" xlink:href="#Inconsolata-100"/>
      <use x="399.999878" xlink:href="#Inconsolata-32"/>
      <use x="449.999863" xlink:href="#Inconsolata-32"/>
      <use x="499.999847" xlink:href="#Inconsolata-72"/>
      <use x="549.999832" xlink:href="#Inconsolata-84"/>
      <use x="599.999817" xlink:href="#Inconsolata-84"/>
      <use x="649.999802" xlink:href="#Inconsolata-80"/>
      <use x="699.999786" xlink:href="#Inconsolata-47"/>
      <use x="749.999771" xlink:href="#Inconsolata-50"/>
     </g>
    </g>
   </g>
  </g>
 </g>
 <defs>
  <clipPath id="p7ec447a9ad">
   <rect height="380.52" width="837" x="44.973125" y="21.18"/>
  </clipPath>
 </defs>
</svg>
